PathFileType	4	(X/Y/Z)	C:\Users\chris\Documents\GitHub\baseballds\vids\pitch5_Sports2D\pitch5_Sports2D_m_person03.trc
DataRate	CameraRate	NumFrames	NumMarkers	Units	OrigDataRate	OrigDataStartFrame	OrigNumFrames
30	30	11	22	m	30	18	149
Frame#	Time	Hip			RHip			RKnee			RAnkle			RBigToe			RSmallToe			RHeel			LHip			LKnee			LAnkle			LBigToe			LSmallToe			LHeel			Neck			Head			Nose			RShoulder			RElbow			RWrist			LShoulder			LElbow			LWrist		
		X1	Y1	Z1	X2	Y2	Z2	X3	Y3	Z3	X4	Y4	Z4	X5	Y5	Z5	X6	Y6	Z6	X7	Y7	Z7	X8	Y8	Z8	X9	Y9	Z9	X10	Y10	Z10	X11	Y11	Z11	X12	Y12	Z12	X13	Y13	Z13	X14	Y14	Z14	X15	Y15	Z15	X16	Y16	Z16	X17	Y17	Z17	X18	Y18	Z18	X19	Y19	Z19	X20	Y20	Z20	X21	Y21	Z21	X22	Y22	Z22
18	0.6	3.1163513956031776	1.3764821571283847	0.0	3.113276283714021	1.3755437680816767	0.0	3.117935975715361	1.3470726055709776	0.0	3.1242101597478587	1.3188320781951297	0.0	3.1110674715817868	1.3109662172117884	0.0	3.1102994055986932	1.3132726549627554	0.0	3.1276581310615192	1.3150779701679935	0.0	3.119627634149082	1.3763190887898007	0.0	3.1231889586486594	1.3466278084712722	0.0	3.1275333918434596	1.3176944314160788	0.0	3.1161841902456358	1.310553203261207	0.0	3.1182043362147884	1.3121679220562912	0.0	3.131476008766006	1.3149661417482084	0.0	3.112983519069712	1.4228080950701818	0.0	3.1071583722975302	1.4437673601065208	0.0	3.1054055781834538	1.4305747108104574	0.0	3.1109257220782474	1.414338524522381	0.0	3.113775382930035	1.396127872931292	0.0	3.1141054682401057	1.373910826182711	0.0	3.1189627377683484	1.4157535678708704	0.0	3.1243957196480143	1.39534294001336	0.0	3.118667521187502	1.3733446410724284	0.0
19	0.6333333333333333	3.117051931927428	1.375051785254147	0.0	3.113891601904523	1.3740162351727074	0.0	3.1184323301087793	1.3454713524619861	0.0	3.1246739636764604	1.3169576886146328	0.0	3.1116496364688455	1.3091529558256778	0.0	3.110951693319165	1.3114563250752522	0.0	3.128049478301496	1.3131790553976062	0.0	3.120431849119929	1.3747993575026753	0.0	3.1239177693922127	1.3449267469166493	0.0	3.128388494958805	1.3158079281824917	0.0	3.1174664552075657	1.308667345247454	0.0	3.11933600837677	1.3101377010526505	0.0	3.132080469630535	1.3129229663898214	0.0	3.113709808504067	1.4212642315738377	0.0	3.107928528860465	1.44224306552885	0.0	3.1060881946949683	1.4287615452907665	0.0	3.1111911821443456	1.4127375707267658	0.0	3.114390927074072	1.3945930326529457	0.0	3.11450734364576	1.3724369929412494	0.0	3.119743188241128	1.4141835049423186	0.0	3.125047309099472	1.393770173589041	0.0	3.119502831621706	1.3716456845780072	0.0
20	0.6666666666666666	3.1179662723334167	1.373547058579265	0.0	3.1147907145458955	1.3725337888378697	0.0	3.1191129598918086	1.3439504312926378	0.0	3.1253798295163806	1.3152409286754227	0.0	3.112330238788033	1.3074847211800773	0.0	3.111840031262246	1.3096766909546793	0.0	3.128755038293374	1.311391214888642	0.0	3.12138003544504	1.3732441190514484	0.0	3.124639601398341	1.3432907314765483	0.0	3.129398315542273	1.3139653801517304	0.0	3.1188928539049687	1.306914069394351	0.0	3.120604954647546	1.308227614416299	0.0	3.132946104300343	1.3111381691429669	0.0	3.1147570797706257	1.419252179661441	0.0	3.109016681574355	1.440414284305554	0.0	3.1070882340949053	1.4265061288738834	0.0	3.1117837459424758	1.4109123221468223	0.0	3.1148309358074546	1.3929706413664	0.0	3.114924571365165	1.3710244272174175	0.0	3.12077935270641	1.4122999192583037	0.0	3.1256109598755852	1.3920807337432086	0.0	3.1203151218964695	1.3699092097684817	0.0
21	0.7	3.1187840078465827	1.371676366455071	0.0	3.1156712507559745	1.3707505603131678	0.0	3.1199793981781703	1.3422610142074392	0.0	3.1264454736359664	1.3137167638090337	0.0	3.1134572007949486	1.3057497371619058	0.0	3.112988542396321	1.307976157091171	0.0	3.129787118031566	1.309913113731334	0.0	3.1221814720280885	1.371422493721711	0.0	3.12526518577902	1.3416149459119726	0.0	3.130126613689374	1.3123186976227494	0.0	3.1196645655927364	1.3052639980020166	0.0	3.1212500820225983	1.3063600814142633	0.0	3.133741793376136	1.309715533397508	0.0	3.115585328207258	1.4167189341428978	0.0	3.1098210032128093	1.438151529178071	0.0	3.10799593716395	1.4238035446050818	0.0	3.112474900622608	1.4084403642193932	0.0	3.1145763653370375	1.3906954654604953	0.0	3.115307423152086	1.3689962795470225	0.0	3.121667615031274	1.4097454794382918	0.0	3.1261205724919936	1.3897015652070484	0.0	3.1206694142503806	1.3677932249571543	0.0
22	0.7333333333333333	3.1196704862708153	1.368866251868251	0.0	3.1166342117771726	1.3680706592494178	0.0	3.1210210397174873	1.339847357873643	0.0	3.127604014850743	1.3120586138776567	0.0	3.1146945240225548	1.3038480243141803	0.0	3.1141661454404415	1.3061671586409171	0.0	3.1308891509941197	1.3083188408988649	0.0	3.122859380804773	1.3686957550027845	0.0	3.125845712597574	1.3393534038935089	0.0	3.130659270176196	1.3106223850830185	0.0	3.119841369666289	1.3034040967268865	0.0	3.1214341091997264	1.3043001058493549	0.0	3.1343585581195947	1.3081086966292974	0.0	3.1163692752681555	1.4128713580472663	0.0	3.1104803076498406	1.4342855023634415	0.0	3.1089045633529513	1.4199359143130872	0.0	3.113673816623221	1.4045463268780403	0.0	3.114977444671755	1.387058326363545	0.0	3.116201947971282	1.3660955211353505	0.0	3.12229084790558	1.4059668394637468	0.0	3.1266974979801208	1.386369250629559	0.0	3.1209390546030726	1.365178339640874	0.0
23	0.7666666666666666	3.120830086527225	1.3650774734250566	0.0	3.117882755651177	1.3644435248512392	0.0	3.1221767716298765	1.336566952474677	0.0	3.1285265661918564	1.309891724258516	0.0	3.1153694448737914	1.3017491585714616	0.0	3.1150446787562567	1.3041067754384739	0.0	3.131861288427271	1.3061612866608092	0.0	3.123595096802758	1.364908697759067	0.0	3.1265134036726296	1.3361464376431484	0.0	3.131303478154032	1.3084645300657587	0.0	3.1200515435694953	1.3011118966036592	0.0	3.121827349772931	1.3019102856322406	0.0	3.135093324459191	1.3058260121976328	0.0	3.1175565818207764	1.4077586934452546	0.0	3.1114466187384116	1.4287398753306302	0.0	3.1100566654832655	1.4148922518865303	0.0	3.1158031632345065	1.3995816610742196	0.0	3.11727298417083	1.3826241247331255	0.0	3.117673213590644	1.3630410750477462	0.0	3.122887928554194	1.4013372774509816	0.0	3.127301053138209	1.3827200175734575	0.0	3.121562562683382	1.3624628603674993	0.0
24	0.8	3.1218290169703313	1.3615390926347446	0.0	3.1190244194904784	1.3609748768592946	0.0	3.1231821403003837	1.3333757374043056	0.0	3.129069672920732	1.3074739435311298	0.0	3.115495117139497	1.2995773072463035	0.0	3.1154973812600186	1.3019912740828048	0.0	3.132525834418629	1.3038146405234512	0.0	3.1242219051375186	1.3612161296172032	0.0	3.127172358092757	1.332838241426952	0.0	3.1318995752812984	1.3060409111676636	0.0	3.1204931813071464	1.2987879454961868	0.0	3.1224866973828327	1.299628912336593	0.0	3.1359196534420795	1.3033767215472174	0.0	3.1188931985947983	1.4032228600994927	0.0	3.1126763586058495	1.423802596670914	0.0	3.111282439792494	1.4104912091760466	0.0	3.1180216789935704	1.3953491537924276	0.0	3.1202296301357415	1.3790709370200647	0.0	3.1189185003485016	1.3604984377459703	0.0	3.123612056493099	1.3973038924640722	0.0	3.127787152033656	1.379711665263649	0.0	3.122287915200584	1.359971560688076	0.0
25	0.8333333333333334	3.1222109270824454	1.3593745231297407	0.0	3.11956631976395	1.3586559196628212	0.0	3.123787375565838	1.3311916642155657	0.0	3.1292553950070547	1.3053017698776037	0.0	3.1156844607119596	1.2974692644713366	0.0	3.115716654516498	1.299975394570572	0.0	3.1328199791568867	1.3017550407780478	0.0	3.124413637270564	1.358792385449793	0.0	3.127604283995912	1.3305355929042535	0.0	3.1321986303508225	1.3038476968448387	0.0	3.120945536206536	1.2967977988800279	0.0	3.1230513205944783	1.2977230452227997	0.0	3.1365328496382445	1.3013670884893915	0.0	3.1198774460065546	1.4005671795793562	0.0	3.113768263574644	1.4212775255509351	0.0	3.1122094179434185	1.4080633675795113	0.0	3.1192248824746955	1.3928691238341235	0.0	3.1217547269656225	1.3770376091728984	0.0	3.119463883297567	1.3582480102072219	0.0	3.1242563216499026	1.3946144441101007	0.0	3.1280409639379534	1.377472854322852	0.0	3.1227352249608193	1.3575362050267052	0.0
26	0.8666666666666667	3.1223282732373923	1.357718004345697	0.0	3.1197744076655867	1.356799579654987	0.0	3.1240853997706055	1.3293990081229194	0.0	3.1292505032339606	1.3031413156769662	0.0	3.116186981271437	1.2952274483158315	0.0	3.1159820880877054	1.2977195206200711	0.0	3.1329940062017676	1.2995508592123575	0.0	3.1243760844612405	1.3569707174004124	0.0	3.1280348007637713	1.3288016861253926	0.0	3.132577843210092	1.301665385937643	0.0	3.121510180037505	1.2946835637602951	0.0	3.123572282707135	1.2955357962785878	0.0	3.1370670491836643	1.2992243027404926	0.0	3.120708215817945	1.3984790475605124	0.0	3.1146726638746145	1.4196654286720003	0.0	3.112871268205959	1.4061600225498236	0.0	3.1198072053832546	1.390844903942533	0.0	3.121749795972121	1.375213215814093	0.0	3.1197434418181795	1.3558029303881989	0.0	3.124774666109448	1.39222244468889	0.0	3.128276016663614	1.3752366340008932	0.0	3.123213896176313	1.3549112142918116	0.0
27	0.9	3.1228568591272357	1.3550879212053835	0.0	3.120263411499081	1.3542058373335175	0.0	3.1243795680363218	1.3268778191714152	0.0	3.1293753006611036	1.300395849515427	0.0	3.116918355775273	1.292539077556733	0.0	3.1165109902216104	1.2948807810199692	0.0	3.1333904160597155	1.296616001259242	0.0	3.1247898368040117	1.3543801722341955	0.0	3.128924676290246	1.326442465721629	0.0	3.1334754216697545	1.2989134715911692	0.0	3.122554572385094	1.2918904870946117	0.0	3.1243488473277603	1.292515874174018	0.0	3.137849767204706	1.2961775155565003	0.0	3.121719084282474	1.3953343659776	0.0	3.1156346625759133	1.4167020365041147	0.0	3.1135471870142375	1.402908919924758	0.0	3.120571629381765	1.3879019364205718	0.0	3.1215224197805713	1.3724472222373512	0.0	3.1202532327533588	1.353183425221635	0.0	3.125626179930076	1.3891108019437384	0.0	3.1290487680302164	1.3725475223313108	0.0	3.124347173363476	1.352161863075549	0.0
28	0.9333333333333333	3.1239226785710725	1.3518912024781073	0.0	3.121119372546839	1.3511485377789534	0.0	3.124839684941124	1.3239051252071639	0.0	3.1299246516015256	1.297203617228457	0.0	3.118135694977951	1.2895178024145544	0.0	3.1175368374829167	1.2917225932723748	0.0	3.1341532226185387	1.2932800391092603	0.0	3.1259936516169176	1.3512685833651872	0.0	3.13013780067625	1.323551298288562	0.0	3.1345615414631416	1.2958591642533914	0.0	3.124165450534838	1.288717143625339	0.0	3.1253075960180965	1.289183265503597	0.0	3.138776725070617	1.2927430046603312	0.0	3.122543313827578	1.3918833524986725	0.0	3.1166246507085846	1.4130241775269405	0.0	3.114227873599011	1.399039988109271	0.0	3.1211467806665802	1.3847408191706472	0.0	3.121412132474926	1.3694625873873567	0.0	3.1207934732014913	1.3507504041785028	0.0	3.127003169221426	1.38594840817185	0.0	3.1304762356657423	1.3698172800943655	0.0	3.1260388451597576	1.349437047808645	0.0
